<svg id="Guides" xmlns="http://www.w3.org/2000/svg" viewBox="0 0 288 182"><defs><style>.cls-1{fill:#f5f1ea;}.cls-2{fill:#b5a191;}</style></defs><title>ACC1_Logo_Website</title><path class="cls-1" d="M65.53,106.4c-1.25,0-2.5,0-3.75,0l0-.75c.37,0,1.67,0,1.67-.55s-.65-1-.94-1.36c-1.25-1.38-2.5-2.71-3.75-4.09-.28-.31-1-1.17-1.38-1.27a.63.63,0,0,0-.23,0,5.62,5.62,0,0,0-.71,0v5.23a2.3,2.3,0,0,0,.26,1.33c.45.6,1.54.65,2.24.71v.75c-1.43,0-2.89,0-4.32,0-1,0-2.11,0-3.15,0v-.75c.62-.08,1.74,0,2.16-.55a5.56,5.56,0,0,0,.26-2.4q0-3.19.05-6.41c0-1,.13-5.16-.34-5.73s-1.66-.42-2.26-.49v-.76H59v.76c-.65,0-1.56-.11-2.11.31s-.36,1.82-.39,2.42c0,.37,0,.81,0,1.17,0,1.23,0,2.45,0,3.68h.18c1.25,0,2.09-1.17,2.87-2s3.59-3.78,3.59-4.77c0-.76-1.35-.71-1.87-.78v-.76H68v.76c-2.32.13-2.27.31-3.86,1.85-.8.78-1.56,1.69-2.34,2.5S60.29,96.16,59.51,97c.89.86,1.72,1.83,2.55,2.74l3.44,3.67a17.06,17.06,0,0,0,2,1.91,3.15,3.15,0,0,0,1.36.39v.75C67.74,106.4,66.65,106.4,65.53,106.4Z"/><path class="cls-1" d="M75,106.79a5.48,5.48,0,0,1-5.23-5.52,6.91,6.91,0,0,1,1.87-5,5.21,5.21,0,0,1,3.52-1.51,4.25,4.25,0,0,1,4.38,4c-2.56.11-5.08.21-7.64.21a4.09,4.09,0,0,0,0,.78v.4A4.54,4.54,0,0,0,76.2,105a4.71,4.71,0,0,0,3.13-1.69l.39.34A6.07,6.07,0,0,1,75,106.79Zm1.8-10.16a2.21,2.21,0,0,0-2.11-1.17c-1.54,0-2.42,1.66-2.66,3A30.7,30.7,0,0,0,77.14,98,3,3,0,0,0,76.75,96.63Z"/><path class="cls-1" d="M95.34,106.45v-.65c.5,0,1.59-.08,1.93-.49a3,3,0,0,0,.29-1.52c0-1.14.15-2.29.15-3.44a7.44,7.44,0,0,0-.39-2.73A2.6,2.6,0,0,0,95,96.34a4.74,4.74,0,0,0-2.71,1,5.16,5.16,0,0,1,.06,1c0,2.06,0,4.12,0,6.18a1.61,1.61,0,0,0,.16.78c.23.47,1.35.49,1.79.52v.65H88.12v-.65c.47,0,1.7,0,1.93-.55a17.23,17.23,0,0,0,.21-3.36c0-.81,0-1.61,0-2.42a7.07,7.07,0,0,0-.21-2,2.56,2.56,0,0,0-2.32-1.31,4.74,4.74,0,0,0-2.74,1,.2.2,0,0,0-.13.21v6.72a2.52,2.52,0,0,0,.16,1.09c.31.55,1.38.52,1.93.58v.62H80.75v-.65c1.59-.1,1.93,0,1.93-1.72,0-2.42,0-4.82,0-7.24a11.08,11.08,0,0,0-1.77-.78v-.34l4-1.49v2.5c.55-.31,1-.75,1.54-1.09a5,5,0,0,1,2.84-1.12A3.29,3.29,0,0,1,91.64,96a4.84,4.84,0,0,1,.5,1c1.4-1,2.42-2.32,4.32-2.32a3.54,3.54,0,0,1,2.45,1.46,5.58,5.58,0,0,1,1,3.57c0,1.57-.21,3.15-.21,4.72s.73,1.27,2,1.43v.65Z"/><path class="cls-1" d="M107.88,106.35l-.68,0a4.37,4.37,0,0,1-1-.05c0,.91,0,1.83,0,2.74,0,.65,0,1.33,0,2,.11,1.25,1.36.94,2.22,1.1v.65H102v-.63c.94-.08,2-.1,2-1.33v-14a10.34,10.34,0,0,0-1.77-.78v-.34c1.28-.52,2.53-1,3.83-1.49v.47c0,.57,0,1.1,0,1.67,1-.63,2.34-1.64,3.59-1.64a5.33,5.33,0,0,1,3.91,2,6.24,6.24,0,0,1,1.2,3.47C114.86,103.82,111.32,106.22,107.88,106.35Zm2-9.8a4,4,0,0,0-1.43-.34,3.89,3.89,0,0,0-2.32.84v6.74a3.45,3.45,0,0,0,3,1.83,2.79,2.79,0,0,0,1.36-.39,5,5,0,0,0,2.13-4.43A4.34,4.34,0,0,0,109.91,96.55Z"/><path class="cls-1" d="M119.75,106.4h-1.06c-1,0-1.93,0-2.92,0v-.65c2-.18,2.08-.18,2.08-2.29V97.33c0-.08,0-.18-.08-.23-.34-.18-1.35-.63-1.74-.81V96l4-1.56v9.17c0,2,.18,2,2.11,2.16v.65C121.32,106.43,120.54,106.4,119.75,106.4Zm-.93-14a1.33,1.33,0,1,1,1.35-1.32A1.34,1.34,0,0,1,118.82,92.43Z"/><path class="cls-1" d="M130.83,106.45v-.65c.5,0,1.62-.08,2-.49a3,3,0,0,0,.28-1.52c.06-1.19.14-2.37.14-3.56a6.89,6.89,0,0,0-.4-2.74,2.57,2.57,0,0,0-2.32-1.28,4.32,4.32,0,0,0-2.7,1.07c-.13.1-.13.18-.13.34-.11,2.08,0,4.22,0,6.3,0,1.8.52,1.67,2,1.88v.65h-6.2v-.65c.6,0,1.66,0,1.9-.75.1-.37.08-2.85.08-3.34V96.84c-.58-.31-1.18-.52-1.78-.78v-.34l4-1.49v2.5c.54-.31,1-.8,1.53-1.14A4.94,4.94,0,0,1,132,94.52,3.51,3.51,0,0,1,134.4,96a5.58,5.58,0,0,1,1,3.57c0,1.62-.21,3.23-.21,4.85s.73,1.27,2,1.43v.65Z"/><path class="cls-1" d="M145,105.77a4.78,4.78,0,0,1-3,1,12.09,12.09,0,0,1-2.86-.39c-.13-1-.29-2-.42-2.92l.71-.15c.62,1.17,1.09,2.84,2.71,2.84a2,2,0,0,0,2.11-1.83c0-3.18-5.4-2.76-5.4-6.41,0-2,1.93-3.18,3.73-3.18a10.25,10.25,0,0,1,2.21.32l.19,0a1.71,1.71,0,0,0,.59-.15c.19,1,.34,2,.45,2.94l-.65.16c-.53-1.2-1.38-2.66-2.87-2.66a1.71,1.71,0,0,0-1.9,1.82c0,1.1.68,1.46,1.48,2,1.67,1.12,4,1.8,4,4.25A3.79,3.79,0,0,1,145,105.77Z"/><path class="cls-1" d="M147.45,106.45v-.65c.53,0,1.57.1,1.72-.55a8.17,8.17,0,0,0,.13-1.79c.06-3.47.08-6.88.08-10.35,0-1.25,0-2.47,0-3.72a13.85,13.85,0,0,0-1.62-.84v-.18c1.25-.57,2.53-1.12,3.8-1.69v.26c0,1.53,0,3-.07,4.58-.06,3.62-.11,7.27-.11,10.89v1.72c0,1.67.45,1.64,1.88,1.72v.6Zm7,0v-.6c.39,0,1.43,0,1.43-.54s-2.91-3.42-3.44-3.91c-.33-.32-.67-.6-1-.91a16.79,16.79,0,0,0,3-2.38c.28-.28,1.32-1.32,1.32-1.71,0-.55-1.06-.63-1.43-.66v-.65h5.39v.65a5,5,0,0,0-3,1.28c-1.09.86-2.14,1.8-3.2,2.68,1.33,1.44,2.63,2.87,4,4.25.49.5,1,1.07,1.56,1.54a1.83,1.83,0,0,0,1.2.31v.65Z"/><path class="cls-1" d="M165.48,106.4h-1.07c-1,0-1.92,0-2.92,0v-.65c2-.18,2.09-.18,2.09-2.29V97.33c0-.08,0-.18-.08-.23-.34-.18-1.35-.63-1.74-.81V96l4-1.56v9.17c0,2,.18,2,2.11,2.16v.65C167,106.43,166.26,106.4,165.48,106.4Zm-.94-14a1.33,1.33,0,1,1,1.36-1.32A1.33,1.33,0,0,1,164.54,92.43Z"/><path class="cls-1" d="M187.74,106.45v-.78c.83,0,2,.08,2.58-.6.36-.42.36-2.55.36-3.15,0-1.3,0-2.58,0-3.88H181c0,1.79,0,3.57,0,5.36,0,2.3.93,2.22,2.86,2.27v.78h-8l0-.78c.7,0,1.77,0,2.21-.68a5.85,5.85,0,0,0,.32-2.55c0-3.39.07-6.85.07-10.24,0-2.08-.86-2-2.58-2.08v-.76h7.82v.76a4.63,4.63,0,0,0-2.06.33c-.6.37-.57.89-.57,1.52,0,1.69,0,3.41-.08,5.1h9.67c0-1.43.05-2.84.05-4.27,0-2.61-.36-2.61-2.81-2.68v-.76h7.89v.76c-.68,0-1.9-.06-2.32.59a10,10,0,0,0-.21,3c0,3-.08,6.18-.08,9.23a5.37,5.37,0,0,0,.29,2.24c.52.62,1.62.44,2.35.52v.78Z"/><path class="cls-1" d="M207.61,104.81a6.84,6.84,0,0,1-4.49,2,6.09,6.09,0,0,1-6.09-6.15c0-3.07,3.15-5.81,6.15-5.81a7,7,0,0,1,4,1.46,5.69,5.69,0,0,1,2.16,4.4A6.1,6.1,0,0,1,207.61,104.81Zm-1.8-7.69a3.28,3.28,0,0,0-2.63-1.56,2.9,2.9,0,0,0-1.62.5,5.22,5.22,0,0,0-2.06,4.58c0,2.22,1.18,5.42,3.86,5.42,2.42,0,3.46-3.23,3.46-5.21A6.72,6.72,0,0,0,205.81,97.12Z"/><path class="cls-1" d="M218,96.32H214.3V103c0,1.28.42,2.37,1.88,2.37a3,3,0,0,0,2-.73l.26.42a5.15,5.15,0,0,1-3.67,1.69c-1.9,0-2.71-1.17-2.71-2.94,0-2.48.1-5.06.13-7.53H210.6l0-.19c1.28-1.12,2.53-2.24,3.83-3.33v2.29c1.12,0,2.22,0,3.34,0h.75Z"/><path class="cls-1" d="M224.65,106.79a5.48,5.48,0,0,1-5.23-5.52,6.91,6.91,0,0,1,1.87-5,5.21,5.21,0,0,1,3.52-1.51,4.25,4.25,0,0,1,4.38,4c-2.56.11-5.08.21-7.64.21a4.09,4.09,0,0,0-.05.78v.4a4.54,4.54,0,0,0,4.4,4.76A4.69,4.69,0,0,0,229,103.3l.39.34A6.07,6.07,0,0,1,224.65,106.79Zm1.8-10.16a2.21,2.21,0,0,0-2.11-1.17c-1.54,0-2.42,1.66-2.66,3a30.7,30.7,0,0,0,5.16-.41A3,3,0,0,0,226.45,96.63Z"/><path class="cls-1" d="M230.21,106.45v-.65c.54,0,1.59,0,1.87-.57a7,7,0,0,0,.16-2c0-4,0-8,0-12,0-.65,0-1.3,0-2-.52-.24-1-.52-1.56-.76v-.18c1.27-.52,2.52-1.12,3.8-1.69v.26c0,5.31-.16,10.65-.16,16a10.66,10.66,0,0,0,.16,2.29c.29.63,1.56.57,2.16.6v.65Z"/><path class="cls-1" d="M71.13,128.47a1.69,1.69,0,0,0-.28,1.12c0,1,0,1.9.05,2.86.13.19.57.19.83.19v.47a5.62,5.62,0,0,0-.7.34,13.36,13.36,0,0,1-6.67,1.79c-5.45,0-9.59-3.15-9.59-8.86,0-5,4.74-9,9.61-9a13.35,13.35,0,0,1,4.17.63,6.66,6.66,0,0,0,1.49.49.78.78,0,0,0,.6-.34l.39.11.26,4.51-.68.07a9.11,9.11,0,0,0-1.56-2.91,5.25,5.25,0,0,0-4.33-1.85c-4.58,0-6.82,4.22-6.82,8.33,0,4.33,2.78,8.11,7.34,8.11a6.36,6.36,0,0,0,2.77-.71,1.77,1.77,0,0,1,.31-.15c.08-.06.08-.5.08-.6,0-1.12,0-2.24,0-3.36,0-1.83-2.29-1.62-3.54-1.77l0-.68h1.28c2.32,0,4.61,0,6.93-.11l0,.76A2.88,2.88,0,0,0,71.13,128.47Z"/><path class="cls-1" d="M85.73,133.21a6.81,6.81,0,0,1-4.48,2,6.1,6.1,0,0,1-6.1-6.15c0-3.07,3.15-5.81,6.15-5.81a6.92,6.92,0,0,1,4,1.46,5.69,5.69,0,0,1,2.16,4.4A6.1,6.1,0,0,1,85.73,133.21Zm-1.8-7.69A3.28,3.28,0,0,0,81.3,124a2.86,2.86,0,0,0-1.61.5A5.22,5.22,0,0,0,77.63,129c0,2.22,1.17,5.42,3.85,5.42,2.43,0,3.47-3.23,3.47-5.21A6.73,6.73,0,0,0,83.93,125.52Z"/><path class="cls-1" d="M88.21,134.85v-.65c.55,0,1.59,0,1.88-.57a7.33,7.33,0,0,0,.15-2c0-4,.05-8,.05-12,0-.65,0-1.3-.05-2-.52-.24-1-.52-1.56-.76v-.18c1.27-.52,2.53-1.12,3.8-1.69v.26c0,5.31-.15,10.65-.15,16a11.36,11.36,0,0,0,.15,2.29c.29.63,1.57.57,2.17.6v.65Z"/><path class="cls-1" d="M104.28,135.4l-.11,0c0-.75,0-1.51,0-2.26a29.72,29.72,0,0,1-3.31,1.77,3.08,3.08,0,0,1-.68.08,4.7,4.7,0,0,1-2.6-.91,5.45,5.45,0,0,1-2.17-4.41,3.23,3.23,0,0,1,0-.44,6.3,6.3,0,0,1,4.59-5.42,7.72,7.72,0,0,1,2.29-.42c.63,0,1.25,0,1.88.06-.08-1.72,0-3.47,0-5.19v-.52c-.55-.23-1-.57-1.62-.78v-.24c1.28-.49,2.5-1.14,3.78-1.66v.26c0,5.73-.15,11.49-.15,17.22a2.28,2.28,0,0,0,.1.83c.13.24,1.56.24,1.85.26v.55C106.8,134.57,105.58,135.09,104.28,135.4Zm-.19-9.64a4.2,4.2,0,0,0-2.86-1.59c-2.53,0-3.7,2.53-3.7,4.74a4.28,4.28,0,0,0,4.06,4.48,5.07,5.07,0,0,0,2.5-.94c0-1.17.06-2.31.06-3.49S104.12,126.83,104.09,125.76Z"/><path class="cls-1" d="M131.31,134.9a3.92,3.92,0,0,0-1.2-.2,12.6,12.6,0,0,0-2.17.36,10.19,10.19,0,0,1-2,.18c-5.21,0-9.62-3.54-9.62-9a8.78,8.78,0,0,1,1.39-4.64,9.75,9.75,0,0,1,8.18-4.27,12.3,12.3,0,0,1,3.9.68,6.4,6.4,0,0,0,1.65.44.86.86,0,0,0,.75-.34l.34.16.13,4.9-.75.05c-.81-3-2.51-5-5.79-5-4.27,0-6.56,4.16-6.56,8,0,4.07,2.37,8.13,6.85,8.13,3,0,4.61-2.16,6.22-4.35l.63.29C132.66,131.86,132,133.39,131.31,134.9Z"/><path class="cls-1" d="M146,133.21a6.81,6.81,0,0,1-4.48,2,6.1,6.1,0,0,1-6.1-6.15c0-3.07,3.16-5.81,6.15-5.81a6.92,6.92,0,0,1,4,1.46,5.7,5.7,0,0,1,2.17,4.4A6.11,6.11,0,0,1,146,133.21Zm-1.8-7.69A3.26,3.26,0,0,0,141.6,124a2.89,2.89,0,0,0-1.61.5,5.22,5.22,0,0,0-2.06,4.58c0,2.22,1.17,5.42,3.86,5.42,2.42,0,3.46-3.23,3.46-5.21A6.73,6.73,0,0,0,144.23,125.52Z"/><path class="cls-1" d="M157,135.14c-.73,0-1.09-1.2-1.3-1.75-1,.55-3.41,1.77-4.59,1.77s-1.32-1.48-1.32-2.37c0-1.22.13-1.92,1.32-2.47a47.38,47.38,0,0,1,4.59-1.46s0-1.41,0-1.9c0-1.36-.39-2.63-2.35-2.63a1.66,1.66,0,0,0-1.67.83,4.83,4.83,0,0,0-.2,1.56l-2.09,0a1,1,0,0,1,.37-.94,17.54,17.54,0,0,1,2.89-2.16,4.38,4.38,0,0,1,2-.68,3.22,3.22,0,0,1,3.13,3.33v5.32c0,.68-.16,1.85.83,1.85a3.23,3.23,0,0,0,1.25-.47l.23.39C159.48,133.84,157.71,135.14,157,135.14Zm-1.3-5.63c-1,.24-3.13.7-3.75,1.59a1.8,1.8,0,0,0-.31,1,1.73,1.73,0,0,0,1.56,1.64,6,6,0,0,0,2.5-1Z"/><path class="cls-1" d="M167.83,134.17a4.77,4.77,0,0,1-3,1,12.1,12.1,0,0,1-2.87-.39c-.13-1-.29-2-.42-2.92l.71-.16c.62,1.18,1.09,2.85,2.71,2.85a2,2,0,0,0,2.11-1.83c0-3.18-5.4-2.76-5.4-6.41,0-2,1.93-3.18,3.73-3.18a10.25,10.25,0,0,1,2.21.32l.19,0a1.71,1.71,0,0,0,.59-.15c.19,1,.34,2,.45,2.94l-.65.16c-.53-1.2-1.38-2.66-2.87-2.66a1.71,1.71,0,0,0-1.9,1.82c0,1.1.68,1.46,1.48,2,1.67,1.12,4,1.8,4,4.25A3.79,3.79,0,0,1,167.83,134.17Z"/><path class="cls-1" d="M178,124.72h-3.65v6.72c0,1.28.42,2.37,1.88,2.37a3.06,3.06,0,0,0,2-.73l.26.42a5.17,5.17,0,0,1-3.68,1.69c-1.9,0-2.71-1.17-2.71-2.94,0-2.48.11-5.06.14-7.53h-1.57l-.05-.19c1.28-1.12,2.53-2.24,3.83-3.33v2.29c1.12,0,2.21,0,3.33,0h.76Z"/><path class="cls-1" d="M201.84,134.9a3.92,3.92,0,0,0-1.2-.2,12.6,12.6,0,0,0-2.17.36,10.26,10.26,0,0,1-2,.18c-5.21,0-9.62-3.54-9.62-9a8.86,8.86,0,0,1,1.38-4.64,9.77,9.77,0,0,1,8.19-4.27,12.3,12.3,0,0,1,3.9.68,6.43,6.43,0,0,0,1.64.44.87.87,0,0,0,.76-.34l.34.16.13,4.9-.76.05c-.8-3-2.5-5-5.78-5-4.27,0-6.57,4.16-6.57,8,0,4.07,2.38,8.13,6.86,8.13,3,0,4.61-2.16,6.22-4.35l.63.29C203.19,131.86,202.56,133.39,201.84,134.9Z"/><path class="cls-1" d="M209.22,134.8h-1.07c-1,0-1.93,0-2.92,0v-.65c2-.18,2.08-.18,2.08-2.29v-6.18c0-.08,0-.18-.07-.23-.34-.18-1.36-.63-1.75-.81v-.26l4-1.56V132c0,2,.18,2,2.11,2.16v.65C210.78,134.83,210,134.8,209.22,134.8Zm-.94-14a1.33,1.33,0,1,1,1.35-1.32A1.34,1.34,0,0,1,208.28,120.83Z"/><path class="cls-1" d="M219.64,124.72H216v6.72c0,1.28.41,2.37,1.87,2.37a3,3,0,0,0,2-.73l.26.42a5.13,5.13,0,0,1-3.67,1.69c-1.9,0-2.71-1.17-2.71-2.94,0-2.48.1-5.06.13-7.53H212.3l-.06-.19c1.28-1.12,2.53-2.24,3.84-3.33v2.29c1.12,0,2.21,0,3.33,0h.76Z"/><path class="cls-1" d="M231.4,126c-.93,2.21-1.87,4.46-2.81,6.67-.86,2.06-1.67,4.12-2.53,6.17-.34.84-1.33,2.27-2.34,2.27-.06,0-.13,0-.16,0a13.44,13.44,0,0,1-.62-1.69c2.55-.53,3.2-2.3,4.09-4.46-1.31-3.31-2.61-6.64-4.12-9.88a1.54,1.54,0,0,0-1.54-.91v-.65h5.92v.65c-.6,0-1.83,0-1.83.86s2.22,6,2.74,7.19c.57-1.4,2.37-5.86,2.37-7.14,0-.67-1-.88-1.54-.91v-.65h4.64v.65C232.32,124.2,231.87,124.87,231.4,126Z"/><path class="cls-1" d="M90.88,171.81l3.26-7.66h1.35l3.23,7.66H97.09l-.68-1.74H93.15l-.68,1.74Zm2.74-3h2.31l-1.15-2.95Z"/><path class="cls-1" d="M107.63,169.75a3.46,3.46,0,0,1-3.29,2.25c-2,0-3.59-1.48-3.59-4s1.68-4,3.64-4a3,3,0,0,1,3.07,2.16l-1.38.47a1.59,1.59,0,0,0-1.65-1.3c-1.25,0-2.12,1-2.12,2.66s.92,2.73,2.13,2.73a2,2,0,0,0,1.81-1.38Z"/><path class="cls-1" d="M117,169.75a3.43,3.43,0,0,1-3.28,2.25c-2,0-3.6-1.48-3.6-4s1.69-4,3.65-4a3,3,0,0,1,3.07,2.16l-1.39.47a1.57,1.57,0,0,0-1.64-1.3c-1.26,0-2.13,1-2.13,2.66s.92,2.73,2.14,2.73a2,2,0,0,0,1.8-1.38Z"/><path class="cls-1" d="M123.74,168.43l2,3.38h-1.71v0l-1.75-3.2h-.91v3.22H120v-7.66h2.66c1.48,0,2.84.6,2.84,2.21A2,2,0,0,1,123.74,168.43Zm.29-2.09c0-.77-.75-1-1.47-1h-1.17v2h1.06C123.14,167.38,124,167.27,124,166.34Z"/><path class="cls-1" d="M128.27,171.81l3.26-7.66h1.36l3.22,7.66h-1.63l-.67-1.74h-3.27l-.68,1.74Zm2.75-3h2.31l-1.16-2.95Z"/><path class="cls-1" d="M154.56,171.81h-1.23v-.63a2.75,2.75,0,0,1-2.12.82c-2.38,0-3.64-1.87-3.64-3.95a3.79,3.79,0,0,1,3.73-4.1,3.36,3.36,0,0,1,3.26,2.24l-1.38.56a1.93,1.93,0,0,0-1.86-1.49c-1.46,0-2.18,1.23-2.18,2.75,0,1.69.93,2.68,2.2,2.68a1.84,1.84,0,0,0,1.9-1.8h-1.92v-1.28h3.24Z"/><path class="cls-1" d="M163,164.15h1.43v7.66H163v-3.34h-3.46v3.34h-1.43v-7.66h1.43v3H163Z"/><path class="cls-1" d="M167.22,171.81l3.25-7.66h1.36l3.23,7.66h-1.64l-.67-1.74h-3.27l-.67,1.74Zm2.74-3h2.31l-1.15-2.95Z"/><path class="cls-1" d="M179.27,166.12v5.69h-1.43v-7.66h1.86l3.48,5.5v-5.5h1.42v7.66h-1.77Z"/><path class="cls-1" d="M187.38,171.81l3.26-7.66H192l3.22,7.66h-1.63l-.68-1.74h-3.26l-.68,1.74Zm2.75-3h2.31l-1.16-2.95Z"/><rect class="cls-1" x="79.06" y="151.39" width="129.32" height="1.07"/><path class="cls-2" d="M182.51,18.17c2.31-8.45-7.33-6.85-7.84-7.07,1.66,1.74,2.91,2.68,2.14,4.68S173.9,24,165.14,25.09a24.65,24.65,0,0,1-2-4.46s6.55-1.95,7.73-2.33c2.68-.89,3.11-5.21-1.43-5.05-6.31.22-12.91.31-13.83.47s-4.46,1.69-2.61,4.76,4,6.61,4,6.61l-13.16-1.37s5-3.09,5.77-3.7,3.7-1.85,0-4.15a115.85,115.85,0,0,0-11.07-5.69c-2.44-1-4.92,2.46-2.15,4.15s4.14,3.07,3.84,3.69S135,20.78,135,20.78l-.15-6L126.55,10v9.23l5.53,3.38-5.22,2.46s-1.08-5.17-1.39-6.15c-.37-1.16-4.65-2.5-5.23,2.92-.5,4.78-.61,10.15-.61,10.15s1.38,3.38,4,2.15,6.76-3.38,6.76-3.38l-6.15,11.84s-3.23-5.38-4-6.46-3.68-3.07-5.69-.46-7.22,10.61-8.14,12c-1.45,2.18,1.7,5.12,3.84,3.23,1.92-1.69,4.77-5.07,5.69-5.23s3.84,3.84,3.54,4.61-7.39.93-7.39.93l-7.53,9.68,12.61-1.23,4.61-5.53s3.08,4.46,2,5.07-6.53,1.81-7.42,2c-1.33.34-3.19,3.85,1.12,4.78s14,.41,14.75.1,4.46-1.38,2.47-5.07-3.39-6.31-3.39-6.31L143.61,56s-5.84,3.23-6,3.69-.77,2.46.77,3.69,7.42,4.25,9.84,5.38c3.07,1.57,6.48-1,3.84-3.38-1.72-1.49-4.3-4.15-4.3-4.61s3.38-2.15,3.38-2.15,4.5,7.33,7.29,9.11,10.52,4.51,11.31-5.27c-2.77,2.31-10.14,3.38-12.91-6.61,1.08-.62,3.84-2.77,4-2.15s2,5.57,2.45,6.91,4.07,1.2,4.46-1.07c.62-3.69,1.08-12,.31-13.07s-2.15-1.84-3.22-1.38-6,2.92-6,2.92l5.07-10.61s3.23,4.92,3.84,6,4,3.07,6.31,0a116.79,116.79,0,0,0,7.37-11.69c.62-1.38-1.53-6-4.61-2.61S171.75,34.16,171,34s-3.07-2.77-2.61-3.23S180.21,26.63,182.51,18.17ZM156,31.15,144.5,36.81l-4.05-7.25Zm-26,14.34,7.22-13.83L141,39ZM132.35,49l11.45-5.65,4.07,7.24Zm18.81-.51-3.81-7.38,11-6.45Z"/></svg>